<svg width="185" height="166" viewBox="0 0 185 166" fill="none" xmlns="http://www.w3.org/2000/svg">
<path d="M1.68435 161.556C0.966049 160.483 0.449885 159.264 0.190341 157.952L0.680835 157.855C0.562252 157.255 0.5 156.635 0.5 156V153.558H0V148.673H0.5V143.788H0V138.904H0.5V134.019H0V129.135H0.5V124.25H0V119.365H0.5V114.481H0V109.596H0.5V104.712H0V99.8269H0.5V94.9423H0V90.0577H0.5V85.1731H0V80.2885H0.5V75.4038H0V70.5192H0.5V65.6346H0V60.75H0.5V55.8654H0V50.9808H0.5V46.0962H0V41.2115H0.5V36.3269H0V31.4423H0.5V29C0.5 28.3649 0.562252 27.7448 0.680835 27.1454L0.190341 27.0484C0.449883 25.7364 0.966047 24.5168 1.68435 23.4438L2.09983 23.722C2.79355 22.6858 3.6858 21.7936 4.722 21.0998L4.44384 20.6843C5.51676 19.966 6.73643 19.4499 8.04838 19.1903L8.14541 19.6808C8.74483 19.5623 9.3649 19.5 10 19.5H12.45V19H17.35V19.5H22.25V19H27.15V19.5H32.05V19H36.95V19.5H41.85V19H46.75V19.5H51.65V19H56.55V19.5H61.45V19H66.35V19.5H71.25V19H76.15V19.5H81.05V19H85.95V19.5H90.85V19H95.75V19.5H100.65V19H105.55V19.5H110.45V19H115.35V19.5H120.25V19H125.15V19.5H130.05V19H134.95V19.5H139.85V19H144.75V19.5H149.65V19H154.55V19.5H157C157.635 19.5 158.255 19.5623 158.855 19.6808L158.952 19.1903C160.264 19.4499 161.483 19.966 162.556 20.6843L162.278 21.0998C163.314 21.7936 164.206 22.6858 164.9 23.722L165.316 23.4438C166.034 24.5168 166.55 25.7364 166.81 27.0484L166.319 27.1454C166.438 27.7448 166.5 28.3649 166.5 29V31.4423H167V36.3269H166.5V41.2116H167V46.0962H166.5V50.9808H167V55.8654H166.5V60.75H167V65.6346H166.5V70.5192H167V75.4039H166.5V80.2885H167V85.1731H166.5V90.0577H167V94.9423H166.5V99.8269H167V104.712H166.5V109.596H167V114.481H166.5V119.365H167V124.25H166.5V129.135H167V134.019H166.5V138.904H167V143.788H166.5V148.673H167V153.558H166.5V156C166.5 156.635 166.438 157.255 166.319 157.855L166.81 157.952C166.55 159.264 166.034 160.483 165.316 161.556L164.9 161.278C164.206 162.314 163.314 163.206 162.278 163.9L162.556 164.316C161.483 165.034 160.264 165.55 158.952 165.81L158.855 165.319C158.255 165.438 157.635 165.5 157 165.5H154.55V166H149.65V165.5H144.75V166H139.85V165.5H134.95V166H130.05V165.5H125.15V166H120.25V165.5H115.35V166H110.45V165.5H105.55V166H100.65V165.5H95.75V166H90.85V165.5H85.95V166H81.05V165.5H76.15V166H71.25V165.5H66.35V166H61.45V165.5H56.55V166H51.65V165.5H46.75V166H41.85V165.5H36.95V166H32.05V165.5H27.15V166H22.25V165.5H17.35V166H12.45V165.5H10C9.3649 165.5 8.74484 165.438 8.14542 165.319L8.04838 165.81C6.73644 165.55 5.51676 165.034 4.44384 164.316L4.72201 163.9C3.6858 163.206 2.79355 162.314 2.09983 161.278L1.68435 161.556Z" stroke="#787373" stroke-dasharray="5 5"/>
<circle cx="166" cy="19" r="5" fill="#787373"/>
<rect x="165.583" y="15.25" width="0.833333" height="7.5" fill="#F6F3EC"/>
<rect x="169.75" y="18.5832" width="0.833333" height="7.5" transform="rotate(90 169.75 18.5832)" fill="#F6F3EC"/>
<path d="M75 63C73.3431 63 72 64.4924 72 66.3333V69.6667H57C55.3431 69.6667 54 71.1591 54 73V99.6667C54 101.508 55.3431 103 57 103H111C112.657 103 114 101.508 114 99.6667V73C114 71.1591 112.657 69.6667 111 69.6667H96V66.3333C96 64.4924 94.6569 63 93 63H75Z" fill="#787373"/>
<rect x="96.6001" y="73.6667" width="14.4" height="2.66667" rx="1" fill="#F6F3EC"/>
<ellipse cx="83.6998" cy="86.0002" rx="12.9" ry="14.3333" fill="#F6F3EC"/>
<ellipse cx="83.7" cy="86.0003" rx="7.74" ry="8.6" fill="#787373"/>
</svg>
