<svg width="37" height="37" viewBox="0 0 37 37" fill="none" xmlns="http://www.w3.org/2000/svg">
<path fill-rule="evenodd" clip-rule="evenodd" d="M17 37V36.9401C7.48423 36.1765 0 28.2123 0 18.5C0 8.78771 7.48423 0.823462 17 0.0599317V0H20V0.0599317C29.5158 0.823462 37 8.78771 37 18.5C37 28.2123 29.5158 36.1765 20 36.9401V37H17ZM13.4949 2.77277C9.94704 3.90087 6.91945 6.19627 4.8634 9.20775C6.73237 9.40879 8.47698 9.5729 10.1414 9.70052C10.9311 6.86186 12.0909 4.47078 13.4949 2.77277ZM2 18.5C2 15.839 2.62989 13.3252 3.74871 11.0995C5.85988 11.377 7.80815 11.6076 9.6441 11.7903C9.2282 13.8705 9 16.1334 9 18.5C9 20.9814 9.25087 23.3487 9.70591 25.5109C7.89489 25.6903 5.97484 25.9165 3.897 26.1884C2.68571 23.8925 2 21.2763 2 18.5ZM5.06311 28.0782C7.11314 30.949 10.0602 33.1351 13.4949 34.2272C12.1408 32.5895 11.0138 30.3072 10.2269 27.6003C8.59612 27.7243 6.88874 27.8835 5.06311 28.0782ZM12.2733 27.4609C12.6399 28.6426 13.0744 29.7191 13.5616 30.6679C14.6557 32.7984 15.8678 34.0408 17 34.6135V27.2808C15.4564 27.3039 13.8961 27.3638 12.2733 27.4609ZM20 27.2822V34.6135C21.1322 34.0408 22.3443 32.7984 23.4384 30.6679C23.9249 29.7205 24.3589 28.6455 24.7252 27.4658C23.1061 27.3682 21.5465 27.3068 20 27.2822ZM25.305 25.249C23.5011 25.106 21.7555 25.0251 20 25.0049V12.3024C21.7761 12.282 23.5421 12.1994 25.3686 12.0533C25.7724 14.0254 26 16.2 26 18.5C26 20.9181 25.7484 23.1977 25.305 25.249ZM26.7714 27.6058C25.9847 30.3103 24.8582 32.5907 23.5051 34.2272C26.9386 33.1355 29.8849 30.9504 31.9349 28.0811C30.1107 27.8887 28.4038 27.7301 26.7714 27.6058ZM33.1118 26.1718C31.0532 25.8632 29.1415 25.6166 27.3109 25.4307C27.7553 23.2902 28 20.9507 28 18.5C28 16.1637 27.7776 13.9286 27.3718 11.8705C29.2273 11.6809 31.1668 11.429 33.2583 11.1135C34.3728 13.3358 35 15.8446 35 18.5C35 21.2696 34.3176 23.8799 33.1118 26.1718ZM17 25.0288V12.2786C15.281 12.2323 13.5172 12.1305 11.6477 11.9742C11.2337 13.9671 11 16.1692 11 18.5C11 20.9491 11.2581 23.2562 11.7122 25.3278C13.5577 25.1746 15.3008 25.0746 17 25.0288ZM20 10.0251C21.5756 10.0001 23.1649 9.93688 24.8167 9.83601C24.4319 8.53736 23.9661 7.35974 23.4384 6.33213C22.3443 4.20156 21.1322 2.9592 20 2.3865V10.0251ZM26.8571 9.695C28.5231 9.56712 30.2673 9.40368 32.1348 9.20512C30.0788 6.19494 27.0519 3.90054 23.5051 2.77277C24.9081 4.46968 26.0674 6.85876 26.8571 9.695ZM17 2.3865V10.0266C15.4274 10.003 13.8375 9.94131 12.1818 9.84096C12.5669 8.54035 13.0333 7.36105 13.5616 6.33213C14.6557 4.20156 15.8678 2.9592 17 2.3865Z" fill="#787373"/>
</svg>
