<svg width="37" height="34" viewBox="0 0 37 34" fill="none" xmlns="http://www.w3.org/2000/svg">
<path d="M17.4366 4.24837L18.5 5.31722L19.5634 4.24837C23.2091 0.583877 29.1168 0.583877 32.7625 4.24837C36.4125 7.91713 36.4125 13.8685 32.7625 17.5373L18.5 31.8732L4.23748 17.5373C0.587508 13.8685 0.587507 7.91713 4.23748 4.24837C7.88321 0.583877 13.7909 0.583877 17.4366 4.24837Z" fill="#9A3C3C" stroke="#F6F3EC" stroke-width="3"/>
<path d="M15.9714 9.42106C15.9714 8.75085 16.2304 8.10688 16.6938 7.625V13.0236C16.7921 13.0629 16.8869 13.0992 16.9784 13.1325C17.1328 13.1886 17.2783 13.2363 17.4163 13.2761V8.35119L17.7775 7.625L18.1388 8.35119V13.4229C18.3945 13.4496 18.6295 13.4438 18.8613 13.4119V8.35119L19.2225 7.625L19.5837 8.35119V13.2387C19.8076 13.1668 20.0439 13.0784 20.3062 12.979V7.625C20.7696 8.10688 21.0287 8.75085 21.0287 9.42106V17.7916C21.0287 18.1927 20.7052 18.5178 20.3062 18.5178H19.2225L18.8613 33.0416H18.1388L17.7775 18.5178H16.6938C16.2948 18.5178 15.9714 18.1927 15.9714 17.7916V9.42106Z" fill="#F6F3EC"/>
</svg>
