<svg width="75" height="75" viewBox="0 0 75 75" fill="none" xmlns="http://www.w3.org/2000/svg">
<path d="M35.8881 24.8975L36.5952 25.6046L37.3023 24.8975C41.1657 21.0342 47.4295 21.0342 51.2929 24.8975C55.1563 28.7609 55.1563 35.0247 51.2929 38.8881L36.5952 53.5858L21.8975 38.8881C18.0342 35.0247 18.0342 28.7609 21.8975 24.8975C25.7609 21.0342 32.0247 21.0342 35.8881 24.8975Z" stroke="#787373" stroke-width="2"/>
<path d="M34.0536 30.421C34.0536 29.7508 34.314 29.1069 34.7798 28.625V34.0236C34.8785 34.0629 34.9738 34.0992 35.0658 34.1325C35.221 34.1886 35.3672 34.2363 35.506 34.2761V29.3512L35.8691 28.625L36.2322 29.3512V34.4229C36.4892 34.4496 36.7254 34.4438 36.9583 34.4119V29.3512L37.3214 28.625L37.6845 29.3512V34.2387C37.9095 34.1667 38.147 34.0784 38.4107 33.9789V28.625C38.8765 29.1069 39.1369 29.7508 39.1369 30.421V38.7916C39.1369 39.1927 38.8118 39.5178 38.4107 39.5178H37.3214L36.9583 54.0416H36.2322L35.8691 39.5178H34.7798C34.3787 39.5178 34.0536 39.1927 34.0536 38.7916V30.421Z" fill="#787373"/>
<circle cx="37.5" cy="37.5" r="36.5" stroke="#787373" stroke-width="2"/>
</svg>
